<svg width="1440" height="1024" viewBox="0 0 1440 1024" fill="none" xmlns="http://www.w3.org/2000/svg">
<g clip-path="url(#clip0_4_189)">
<rect width="1440" height="1024" fill="#000913"/>
<g filter="url(#filter0_f_4_189)">
<ellipse cx="1418" cy="365.5" rx="443" ry="419.5" fill="#01295B" fill-opacity="0.53"/>
<path d="M1418 -53.5C1662.41 -53.5 1860.5 134.118 1860.5 365.5C1860.5 596.882 1662.41 784.5 1418 784.5C1173.59 784.5 975.5 596.882 975.5 365.5C975.5 134.118 1173.59 -53.5 1418 -53.5Z" stroke="black"/>
</g>
<g filter="url(#filter1_f_4_189)">
<ellipse cx="286.5" cy="747.5" rx="416.5" ry="388.5" fill="#01295B" fill-opacity="0.86"/>
<path d="M286.5 359.5C516.284 359.5 702.5 533.246 702.5 747.5C702.5 961.754 516.284 1135.5 286.5 1135.5C56.7162 1135.5 -129.5 961.754 -129.5 747.5C-129.5 533.246 56.7162 359.5 286.5 359.5Z" stroke="black"/>
</g>
<rect x="1346" y="41" width="50" height="50" fill="#F4FFF9"/>
<path d="M1227.43 60.6445C1226.74 60.6445 1226.12 60.7812 1225.58 61.0547C1225.05 61.3203 1224.6 61.707 1224.23 62.2148C1223.88 62.7227 1223.6 63.3359 1223.41 64.0547C1223.23 64.7734 1223.13 65.582 1223.13 66.4805C1223.13 67.6914 1223.28 68.7266 1223.58 69.5859C1223.88 70.4375 1224.35 71.0898 1224.98 71.543C1225.62 71.9883 1226.43 72.2109 1227.43 72.2109C1228.13 72.2109 1228.82 72.1328 1229.52 71.9766C1230.22 71.8203 1230.98 71.5977 1231.8 71.3086V74.3555C1231.05 74.668 1230.3 74.8906 1229.57 75.0234C1228.83 75.1641 1228.01 75.2344 1227.09 75.2344C1225.33 75.2344 1223.88 74.8711 1222.73 74.1445C1221.6 73.4102 1220.76 72.3867 1220.21 71.0742C1219.67 69.7539 1219.39 68.2148 1219.39 66.457C1219.39 65.1602 1219.57 63.9727 1219.92 62.8945C1220.27 61.8164 1220.79 60.8828 1221.47 60.0938C1222.15 59.3047 1222.99 58.6953 1223.99 58.2656C1224.99 57.8359 1226.14 57.6211 1227.43 57.6211C1228.29 57.6211 1229.14 57.7305 1229.99 57.9492C1230.85 58.1602 1231.67 58.4531 1232.45 58.8281L1231.28 61.7812C1230.64 61.4766 1229.99 61.2109 1229.34 60.9844C1228.7 60.7578 1228.06 60.6445 1227.43 60.6445ZM1248.9 57.8672L1243.08 75H1239.12L1233.3 57.8672H1236.97L1240.2 68.0625C1240.25 68.2344 1240.34 68.5586 1240.46 69.0352C1240.59 69.5039 1240.71 70.0039 1240.84 70.5352C1240.97 71.0586 1241.06 71.4922 1241.11 71.8359C1241.16 71.4922 1241.24 71.0586 1241.36 70.5352C1241.48 70.0117 1241.6 69.5156 1241.72 69.0469C1241.84 68.5703 1241.93 68.2422 1241.99 68.0625L1245.23 57.8672H1248.9ZM1267.79 75L1266.55 70.9219H1260.3L1259.06 75H1255.15L1261.2 57.7969H1265.64L1271.71 75H1267.79ZM1265.68 67.875L1264.44 63.8906C1264.36 63.625 1264.26 63.2852 1264.12 62.8711C1264 62.4492 1263.87 62.0234 1263.74 61.5938C1263.61 61.1562 1263.51 60.7773 1263.43 60.457C1263.36 60.7773 1263.25 61.1758 1263.11 61.6523C1262.97 62.1211 1262.84 62.5664 1262.72 62.9883C1262.59 63.4102 1262.5 63.7109 1262.45 63.8906L1261.22 67.875H1265.68ZM1273.88 75V57.8672H1277.51V72H1284.46V75H1273.88ZM1287.45 75V57.8672H1291.08V75H1287.45ZM1301.89 65.3789H1308.69V74.2617C1307.79 74.5586 1306.86 74.7969 1305.89 74.9766C1304.92 75.1484 1303.82 75.2344 1302.6 75.2344C1300.89 75.2344 1299.45 74.8984 1298.26 74.2266C1297.07 73.5547 1296.17 72.5625 1295.55 71.25C1294.94 69.9375 1294.63 68.3242 1294.63 66.4102C1294.63 64.6133 1294.97 63.0586 1295.66 61.7461C1296.36 60.4336 1297.37 59.418 1298.7 58.6992C1300.03 57.9805 1301.66 57.6211 1303.58 57.6211C1304.49 57.6211 1305.38 57.7188 1306.27 57.9141C1307.15 58.1094 1307.95 58.3633 1308.67 58.6758L1307.46 61.582C1306.94 61.3164 1306.34 61.0938 1305.67 60.9141C1305 60.7344 1304.29 60.6445 1303.56 60.6445C1302.5 60.6445 1301.59 60.8867 1300.8 61.3711C1300.03 61.8555 1299.43 62.5352 1299 63.4102C1298.58 64.2773 1298.37 65.3008 1298.37 66.4805C1298.37 67.5977 1298.52 68.5898 1298.82 69.457C1299.13 70.3164 1299.61 70.9922 1300.27 71.4844C1300.92 71.9688 1301.78 72.2109 1302.83 72.2109C1303.35 72.2109 1303.78 72.1875 1304.13 72.1406C1304.49 72.0859 1304.83 72.0312 1305.14 71.9766V68.4023H1301.89V65.3789ZM1327.98 75H1323.36L1315.91 62.0391H1315.8C1315.84 62.5781 1315.86 63.1211 1315.89 63.668C1315.91 64.2148 1315.93 64.7617 1315.96 65.3086C1315.98 65.8477 1316 66.3906 1316.03 66.9375V75H1312.78V57.8672H1317.36L1324.8 70.6992H1324.89C1324.87 70.168 1324.85 69.6406 1324.83 69.1172C1324.8 68.5938 1324.78 68.0703 1324.76 67.5469C1324.74 67.0234 1324.73 66.5 1324.71 65.9766V57.8672H1327.98V75Z" fill="white"/>
<rect x="34" y="23" width="679" height="978" rx="30" fill="#F4FFF9" fill-opacity="0.7"/>
<g filter="url(#filter2_d_4_189)">
<path d="M847.293 165H841.861V153.908H831.684V165H826.234V139.301H831.684V149.373H841.861V139.301H847.293V165ZM861.479 144.979C863.295 144.979 864.859 145.33 866.172 146.033C867.484 146.725 868.498 147.732 869.213 149.057C869.928 150.381 870.285 151.998 870.285 153.908V156.51H857.611C857.67 158.021 858.121 159.211 858.965 160.078C859.82 160.934 861.004 161.361 862.516 161.361C863.77 161.361 864.918 161.232 865.961 160.975C867.004 160.717 868.076 160.33 869.178 159.814V163.963C868.205 164.443 867.186 164.795 866.119 165.018C865.064 165.24 863.781 165.352 862.27 165.352C860.301 165.352 858.555 164.988 857.031 164.262C855.52 163.535 854.33 162.428 853.463 160.939C852.607 159.451 852.18 157.576 852.18 155.314C852.18 153.018 852.566 151.107 853.34 149.584C854.125 148.049 855.215 146.9 856.609 146.139C858.004 145.365 859.627 144.979 861.479 144.979ZM861.514 148.793C860.471 148.793 859.604 149.127 858.912 149.795C858.232 150.463 857.84 151.512 857.734 152.941H865.258C865.246 152.145 865.1 151.436 864.818 150.814C864.549 150.193 864.139 149.701 863.588 149.338C863.049 148.975 862.357 148.793 861.514 148.793ZM880.006 165H874.645V137.648H880.006V165ZM891.01 165H885.648V137.648H891.01V165ZM914.512 155.139C914.512 156.779 914.289 158.232 913.844 159.498C913.41 160.764 912.771 161.836 911.928 162.715C911.096 163.582 910.088 164.238 908.904 164.684C907.732 165.129 906.408 165.352 904.932 165.352C903.549 165.352 902.277 165.129 901.117 164.684C899.969 164.238 898.967 163.582 898.111 162.715C897.268 161.836 896.611 160.764 896.143 159.498C895.686 158.232 895.457 156.779 895.457 155.139C895.457 152.959 895.844 151.113 896.617 149.602C897.391 148.09 898.492 146.941 899.922 146.156C901.352 145.371 903.057 144.979 905.037 144.979C906.877 144.979 908.506 145.371 909.924 146.156C911.354 146.941 912.473 148.09 913.281 149.602C914.102 151.113 914.512 152.959 914.512 155.139ZM900.924 155.139C900.924 156.428 901.064 157.512 901.346 158.391C901.627 159.27 902.066 159.932 902.664 160.377C903.262 160.822 904.041 161.045 905.002 161.045C905.951 161.045 906.719 160.822 907.305 160.377C907.902 159.932 908.336 159.27 908.605 158.391C908.887 157.512 909.027 156.428 909.027 155.139C909.027 153.838 908.887 152.76 908.605 151.904C908.336 151.037 907.902 150.387 907.305 149.953C906.707 149.52 905.928 149.303 904.967 149.303C903.549 149.303 902.518 149.789 901.873 150.762C901.24 151.734 900.924 153.193 900.924 155.139ZM923.441 156.475H919.152L918.256 139.301H924.338L923.441 156.475ZM918.186 162.486C918.186 161.385 918.484 160.611 919.082 160.166C919.691 159.721 920.424 159.498 921.279 159.498C922.111 159.498 922.826 159.721 923.424 160.166C924.033 160.611 924.338 161.385 924.338 162.486C924.338 163.541 924.033 164.303 923.424 164.771C922.826 165.24 922.111 165.475 921.279 165.475C920.424 165.475 919.691 165.24 919.082 164.771C918.484 164.303 918.186 163.541 918.186 162.486Z" fill="#A2E8DD"/>
</g>
<path d="M832.668 225.379C831.723 225.379 830.871 225.543 830.113 225.871C829.363 226.191 828.723 226.66 828.191 227.277C827.668 227.887 827.266 228.625 826.984 229.492C826.703 230.359 826.562 231.336 826.562 232.422C826.562 233.859 826.785 235.109 827.23 236.172C827.684 237.227 828.355 238.043 829.246 238.621C830.145 239.199 831.266 239.488 832.609 239.488C833.375 239.488 834.094 239.426 834.766 239.301C835.445 239.168 836.105 239.004 836.746 238.809V240.543C836.121 240.777 835.465 240.949 834.777 241.059C834.09 241.176 833.273 241.234 832.328 241.234C830.586 241.234 829.129 240.875 827.957 240.156C826.793 239.43 825.918 238.406 825.332 237.086C824.754 235.766 824.465 234.207 824.465 232.41C824.465 231.113 824.645 229.93 825.004 228.859C825.371 227.781 825.902 226.852 826.598 226.07C827.301 225.289 828.16 224.688 829.176 224.266C830.199 223.836 831.371 223.621 832.691 223.621C833.559 223.621 834.395 223.707 835.199 223.879C836.004 224.051 836.73 224.297 837.379 224.617L836.582 226.305C836.035 226.055 835.434 225.84 834.777 225.66C834.129 225.473 833.426 225.379 832.668 225.379ZM851.242 234.555C851.242 235.609 851.105 236.551 850.832 237.379C850.559 238.207 850.164 238.906 849.648 239.477C849.133 240.047 848.508 240.484 847.773 240.789C847.047 241.086 846.223 241.234 845.301 241.234C844.441 241.234 843.652 241.086 842.934 240.789C842.223 240.484 841.605 240.047 841.082 239.477C840.566 238.906 840.164 238.207 839.875 237.379C839.594 236.551 839.453 235.609 839.453 234.555C839.453 233.148 839.691 231.953 840.168 230.969C840.645 229.977 841.324 229.223 842.207 228.707C843.098 228.184 844.156 227.922 845.383 227.922C846.555 227.922 847.578 228.184 848.453 228.707C849.336 229.23 850.02 229.988 850.504 230.98C850.996 231.965 851.242 233.156 851.242 234.555ZM841.469 234.555C841.469 235.586 841.605 236.48 841.879 237.238C842.152 237.996 842.574 238.582 843.145 238.996C843.715 239.41 844.449 239.617 845.348 239.617C846.238 239.617 846.969 239.41 847.539 238.996C848.117 238.582 848.543 237.996 848.816 237.238C849.09 236.48 849.227 235.586 849.227 234.555C849.227 233.531 849.09 232.648 848.816 231.906C848.543 231.156 848.121 230.578 847.551 230.172C846.98 229.766 846.242 229.562 845.336 229.562C844 229.562 843.02 230.004 842.395 230.887C841.777 231.77 841.469 232.992 841.469 234.555ZM868.551 227.922C869.965 227.922 871.031 228.293 871.75 229.035C872.469 229.77 872.828 230.953 872.828 232.586V241H870.906V232.68C870.906 231.641 870.68 230.863 870.227 230.348C869.781 229.824 869.117 229.562 868.234 229.562C866.992 229.562 866.09 229.922 865.527 230.641C864.965 231.359 864.684 232.418 864.684 233.816V241H862.75V232.68C862.75 231.984 862.648 231.406 862.445 230.945C862.25 230.484 861.953 230.141 861.555 229.914C861.164 229.68 860.668 229.562 860.066 229.562C859.215 229.562 858.531 229.738 858.016 230.09C857.5 230.441 857.125 230.965 856.891 231.66C856.664 232.348 856.551 233.195 856.551 234.203V241H854.605V228.156H856.176L856.469 229.973H856.574C856.832 229.527 857.156 229.152 857.547 228.848C857.938 228.543 858.375 228.312 858.859 228.156C859.344 228 859.859 227.922 860.406 227.922C861.383 227.922 862.199 228.105 862.855 228.473C863.52 228.832 864 229.383 864.297 230.125H864.402C864.824 229.383 865.402 228.832 866.137 228.473C866.871 228.105 867.676 227.922 868.551 227.922ZM882.859 227.922C884.461 227.922 885.738 228.473 886.691 229.574C887.645 230.676 888.121 232.332 888.121 234.543C888.121 236.004 887.902 237.23 887.465 238.223C887.027 239.215 886.41 239.965 885.613 240.473C884.824 240.98 883.891 241.234 882.812 241.234C882.133 241.234 881.535 241.145 881.02 240.965C880.504 240.785 880.062 240.543 879.695 240.238C879.328 239.934 879.023 239.602 878.781 239.242H878.641C878.664 239.547 878.691 239.914 878.723 240.344C878.762 240.773 878.781 241.148 878.781 241.469V246.742H876.824V228.156H878.43L878.688 230.055H878.781C879.031 229.664 879.336 229.309 879.695 228.988C880.055 228.66 880.492 228.402 881.008 228.215C881.531 228.02 882.148 227.922 882.859 227.922ZM882.52 229.562C881.629 229.562 880.91 229.734 880.363 230.078C879.824 230.422 879.43 230.938 879.18 231.625C878.93 232.305 878.797 233.16 878.781 234.191V234.566C878.781 235.652 878.898 236.57 879.133 237.32C879.375 238.07 879.77 238.641 880.316 239.031C880.871 239.422 881.613 239.617 882.543 239.617C883.34 239.617 884.004 239.402 884.535 238.973C885.066 238.543 885.461 237.945 885.719 237.18C885.984 236.406 886.117 235.52 886.117 234.52C886.117 233.004 885.82 231.801 885.227 230.91C884.641 230.012 883.738 229.562 882.52 229.562ZM896.324 227.945C897.855 227.945 898.992 228.289 899.734 228.977C900.477 229.664 900.848 230.762 900.848 232.27V241H899.43L899.055 239.102H898.961C898.602 239.57 898.227 239.965 897.836 240.285C897.445 240.598 896.992 240.836 896.477 241C895.969 241.156 895.344 241.234 894.602 241.234C893.82 241.234 893.125 241.098 892.516 240.824C891.914 240.551 891.438 240.137 891.086 239.582C890.742 239.027 890.57 238.324 890.57 237.473C890.57 236.191 891.078 235.207 892.094 234.52C893.109 233.832 894.656 233.457 896.734 233.395L898.949 233.301V232.516C898.949 231.406 898.711 230.629 898.234 230.184C897.758 229.738 897.086 229.516 896.219 229.516C895.547 229.516 894.906 229.613 894.297 229.809C893.688 230.004 893.109 230.234 892.562 230.5L891.965 229.023C892.543 228.727 893.207 228.473 893.957 228.262C894.707 228.051 895.496 227.945 896.324 227.945ZM898.926 234.672L896.969 234.754C895.367 234.816 894.238 235.078 893.582 235.539C892.926 236 892.598 236.652 892.598 237.496C892.598 238.23 892.82 238.773 893.266 239.125C893.711 239.477 894.301 239.652 895.035 239.652C896.176 239.652 897.109 239.336 897.836 238.703C898.562 238.07 898.926 237.121 898.926 235.855V234.672ZM910.938 227.922C912.461 227.922 913.613 228.297 914.395 229.047C915.176 229.789 915.566 230.984 915.566 232.633V241H913.645V232.762C913.645 231.691 913.398 230.891 912.906 230.359C912.422 229.828 911.676 229.562 910.668 229.562C909.246 229.562 908.246 229.965 907.668 230.77C907.09 231.574 906.801 232.742 906.801 234.273V241H904.855V228.156H906.426L906.719 230.008H906.824C907.098 229.555 907.445 229.176 907.867 228.871C908.289 228.559 908.762 228.324 909.285 228.168C909.809 228.004 910.359 227.922 910.938 227.922ZM917.547 228.156H919.633L922.469 235.609C922.633 236.047 922.785 236.469 922.926 236.875C923.066 237.273 923.191 237.656 923.301 238.023C923.41 238.391 923.496 238.746 923.559 239.09H923.641C923.75 238.699 923.906 238.188 924.109 237.555C924.312 236.914 924.531 236.262 924.766 235.598L927.449 228.156H929.547L923.957 242.887C923.66 243.676 923.312 244.363 922.914 244.949C922.523 245.535 922.047 245.984 921.484 246.297C920.922 246.617 920.242 246.777 919.445 246.777C919.078 246.777 918.754 246.754 918.473 246.707C918.191 246.668 917.949 246.621 917.746 246.566V245.008C917.918 245.047 918.125 245.082 918.367 245.113C918.617 245.145 918.875 245.16 919.141 245.16C919.625 245.16 920.043 245.066 920.395 244.879C920.754 244.699 921.062 244.434 921.32 244.082C921.578 243.73 921.801 243.312 921.988 242.828L922.691 241.023L917.547 228.156ZM951.52 241H949.223L939.883 226.609H939.789C939.812 226.992 939.84 227.43 939.871 227.922C939.902 228.406 939.926 228.926 939.941 229.48C939.965 230.027 939.977 230.586 939.977 231.156V241H938.125V223.867H940.41L949.715 238.211H949.797C949.781 237.938 949.762 237.551 949.738 237.051C949.715 236.543 949.691 236 949.668 235.422C949.652 234.836 949.645 234.293 949.645 233.793V223.867H951.52V241ZM960.707 227.945C962.238 227.945 963.375 228.289 964.117 228.977C964.859 229.664 965.23 230.762 965.23 232.27V241H963.812L963.438 239.102H963.344C962.984 239.57 962.609 239.965 962.219 240.285C961.828 240.598 961.375 240.836 960.859 241C960.352 241.156 959.727 241.234 958.984 241.234C958.203 241.234 957.508 241.098 956.898 240.824C956.297 240.551 955.82 240.137 955.469 239.582C955.125 239.027 954.953 238.324 954.953 237.473C954.953 236.191 955.461 235.207 956.477 234.52C957.492 233.832 959.039 233.457 961.117 233.395L963.332 233.301V232.516C963.332 231.406 963.094 230.629 962.617 230.184C962.141 229.738 961.469 229.516 960.602 229.516C959.93 229.516 959.289 229.613 958.68 229.809C958.07 230.004 957.492 230.234 956.945 230.5L956.348 229.023C956.926 228.727 957.59 228.473 958.34 228.262C959.09 228.051 959.879 227.945 960.707 227.945ZM963.309 234.672L961.352 234.754C959.75 234.816 958.621 235.078 957.965 235.539C957.309 236 956.98 236.652 956.98 237.496C956.98 238.23 957.203 238.773 957.648 239.125C958.094 239.477 958.684 239.652 959.418 239.652C960.559 239.652 961.492 239.336 962.219 238.703C962.945 238.07 963.309 237.121 963.309 235.855V234.672ZM983.184 227.922C984.598 227.922 985.664 228.293 986.383 229.035C987.102 229.77 987.461 230.953 987.461 232.586V241H985.539V232.68C985.539 231.641 985.312 230.863 984.859 230.348C984.414 229.824 983.75 229.562 982.867 229.562C981.625 229.562 980.723 229.922 980.16 230.641C979.598 231.359 979.316 232.418 979.316 233.816V241H977.383V232.68C977.383 231.984 977.281 231.406 977.078 230.945C976.883 230.484 976.586 230.141 976.188 229.914C975.797 229.68 975.301 229.562 974.699 229.562C973.848 229.562 973.164 229.738 972.648 230.09C972.133 230.441 971.758 230.965 971.523 231.66C971.297 232.348 971.184 233.195 971.184 234.203V241H969.238V228.156H970.809L971.102 229.973H971.207C971.465 229.527 971.789 229.152 972.18 228.848C972.57 228.543 973.008 228.312 973.492 228.156C973.977 228 974.492 227.922 975.039 227.922C976.016 227.922 976.832 228.105 977.488 228.473C978.152 228.832 978.633 229.383 978.93 230.125H979.035C979.457 229.383 980.035 228.832 980.77 228.473C981.504 228.105 982.309 227.922 983.184 227.922ZM996.402 227.922C997.496 227.922 998.434 228.164 999.215 228.648C999.996 229.133 1000.59 229.812 1001.01 230.688C1001.42 231.555 1001.63 232.57 1001.63 233.734V234.941H992.758C992.781 236.449 993.156 237.598 993.883 238.387C994.609 239.176 995.633 239.57 996.953 239.57C997.766 239.57 998.484 239.496 999.109 239.348C999.734 239.199 1000.38 238.98 1001.05 238.691V240.402C1000.41 240.691 999.762 240.902 999.121 241.035C998.488 241.168 997.738 241.234 996.871 241.234C995.637 241.234 994.559 240.984 993.637 240.484C992.723 239.977 992.012 239.234 991.504 238.258C990.996 237.281 990.742 236.086 990.742 234.672C990.742 233.289 990.973 232.094 991.434 231.086C991.902 230.07 992.559 229.289 993.402 228.742C994.254 228.195 995.254 227.922 996.402 227.922ZM996.379 229.516C995.34 229.516 994.512 229.855 993.895 230.535C993.277 231.215 992.91 232.164 992.793 233.383H999.59C999.582 232.617 999.461 231.945 999.227 231.367C999 230.781 998.652 230.328 998.184 230.008C997.715 229.68 997.113 229.516 996.379 229.516Z" fill="#A2E8DD"/>
<rect x="824" y="288" width="458" height="61" rx="18" stroke="#F4FFF9" stroke-width="2"/>
<path d="M838.949 406.27C838.949 408.199 838.598 409.812 837.895 411.109C837.191 412.398 836.172 413.371 834.836 414.027C833.508 414.676 831.895 415 829.996 415H825.344V397.867H830.512C832.254 397.867 833.754 398.188 835.012 398.828C836.27 399.461 837.238 400.402 837.918 401.652C838.605 402.895 838.949 404.434 838.949 406.27ZM836.852 406.34C836.852 404.801 836.594 403.531 836.078 402.531C835.57 401.531 834.82 400.789 833.828 400.305C832.844 399.812 831.637 399.566 830.207 399.566H827.336V413.289H829.762C832.121 413.289 833.891 412.707 835.07 411.543C836.258 410.379 836.852 408.645 836.852 406.34ZM847.41 401.922C848.504 401.922 849.441 402.164 850.223 402.648C851.004 403.133 851.602 403.812 852.016 404.688C852.43 405.555 852.637 406.57 852.637 407.734V408.941H843.766C843.789 410.449 844.164 411.598 844.891 412.387C845.617 413.176 846.641 413.57 847.961 413.57C848.773 413.57 849.492 413.496 850.117 413.348C850.742 413.199 851.391 412.98 852.062 412.691V414.402C851.414 414.691 850.77 414.902 850.129 415.035C849.496 415.168 848.746 415.234 847.879 415.234C846.645 415.234 845.566 414.984 844.645 414.484C843.73 413.977 843.02 413.234 842.512 412.258C842.004 411.281 841.75 410.086 841.75 408.672C841.75 407.289 841.98 406.094 842.441 405.086C842.91 404.07 843.566 403.289 844.41 402.742C845.262 402.195 846.262 401.922 847.41 401.922ZM847.387 403.516C846.348 403.516 845.52 403.855 844.902 404.535C844.285 405.215 843.918 406.164 843.801 407.383H850.598C850.59 406.617 850.469 405.945 850.234 405.367C850.008 404.781 849.66 404.328 849.191 404.008C848.723 403.68 848.121 403.516 847.387 403.516ZM864.25 411.484C864.25 412.305 864.043 412.996 863.629 413.559C863.223 414.113 862.637 414.531 861.871 414.812C861.113 415.094 860.207 415.234 859.152 415.234C858.254 415.234 857.477 415.164 856.82 415.023C856.164 414.883 855.59 414.684 855.098 414.426V412.633C855.621 412.891 856.246 413.125 856.973 413.336C857.699 413.547 858.441 413.652 859.199 413.652C860.309 413.652 861.113 413.473 861.613 413.113C862.113 412.754 862.363 412.266 862.363 411.648C862.363 411.297 862.262 410.988 862.059 410.723C861.863 410.449 861.531 410.188 861.062 409.938C860.594 409.68 859.945 409.398 859.117 409.094C858.297 408.781 857.586 408.473 856.984 408.168C856.391 407.855 855.93 407.477 855.602 407.031C855.281 406.586 855.121 406.008 855.121 405.297C855.121 404.211 855.559 403.379 856.434 402.801C857.316 402.215 858.473 401.922 859.902 401.922C860.676 401.922 861.398 402 862.07 402.156C862.75 402.305 863.383 402.508 863.969 402.766L863.312 404.324C862.781 404.098 862.215 403.906 861.613 403.75C861.012 403.594 860.398 403.516 859.773 403.516C858.875 403.516 858.184 403.664 857.699 403.961C857.223 404.258 856.984 404.664 856.984 405.18C856.984 405.578 857.094 405.906 857.312 406.164C857.539 406.422 857.898 406.664 858.391 406.891C858.883 407.117 859.531 407.383 860.336 407.688C861.141 407.984 861.836 408.293 862.422 408.613C863.008 408.926 863.457 409.309 863.77 409.762C864.09 410.207 864.25 410.781 864.25 411.484ZM872.523 415.234C871.367 415.234 870.348 414.996 869.465 414.52C868.582 414.043 867.895 413.316 867.402 412.34C866.91 411.363 866.664 410.133 866.664 408.648C866.664 407.094 866.922 405.824 867.438 404.84C867.961 403.848 868.68 403.113 869.594 402.637C870.508 402.16 871.547 401.922 872.711 401.922C873.352 401.922 873.969 401.988 874.562 402.121C875.164 402.246 875.656 402.406 876.039 402.602L875.453 404.23C875.062 404.074 874.609 403.934 874.094 403.809C873.586 403.684 873.109 403.621 872.664 403.621C871.773 403.621 871.031 403.812 870.438 404.195C869.852 404.578 869.41 405.141 869.113 405.883C868.824 406.625 868.68 407.539 868.68 408.625C868.68 409.664 868.82 410.551 869.102 411.285C869.391 412.02 869.816 412.582 870.379 412.973C870.949 413.355 871.66 413.547 872.512 413.547C873.191 413.547 873.805 413.477 874.352 413.336C874.898 413.188 875.395 413.016 875.84 412.82V414.555C875.41 414.773 874.93 414.941 874.398 415.059C873.875 415.176 873.25 415.234 872.523 415.234ZM884.723 401.922C884.98 401.922 885.25 401.938 885.531 401.969C885.812 401.992 886.062 402.027 886.281 402.074L886.035 403.879C885.824 403.824 885.59 403.781 885.332 403.75C885.074 403.719 884.832 403.703 884.605 403.703C884.09 403.703 883.602 403.809 883.141 404.02C882.688 404.223 882.289 404.52 881.945 404.91C881.602 405.293 881.332 405.758 881.137 406.305C880.941 406.844 880.844 407.445 880.844 408.109V415H878.887V402.156H880.504L880.715 404.523H880.797C881.062 404.047 881.383 403.613 881.758 403.223C882.133 402.824 882.566 402.508 883.059 402.273C883.559 402.039 884.113 401.922 884.723 401.922ZM890.652 402.156V415H888.707V402.156H890.652ZM889.703 397.352C890.023 397.352 890.297 397.457 890.523 397.668C890.758 397.871 890.875 398.191 890.875 398.629C890.875 399.059 890.758 399.379 890.523 399.59C890.297 399.801 890.023 399.906 889.703 399.906C889.367 399.906 889.086 399.801 888.859 399.59C888.641 399.379 888.531 399.059 888.531 398.629C888.531 398.191 888.641 397.871 888.859 397.668C889.086 397.457 889.367 397.352 889.703 397.352ZM900.812 401.922C902.414 401.922 903.691 402.473 904.645 403.574C905.598 404.676 906.074 406.332 906.074 408.543C906.074 410.004 905.855 411.23 905.418 412.223C904.98 413.215 904.363 413.965 903.566 414.473C902.777 414.98 901.844 415.234 900.766 415.234C900.086 415.234 899.488 415.145 898.973 414.965C898.457 414.785 898.016 414.543 897.648 414.238C897.281 413.934 896.977 413.602 896.734 413.242H896.594C896.617 413.547 896.645 413.914 896.676 414.344C896.715 414.773 896.734 415.148 896.734 415.469V420.742H894.777V402.156H896.383L896.641 404.055H896.734C896.984 403.664 897.289 403.309 897.648 402.988C898.008 402.66 898.445 402.402 898.961 402.215C899.484 402.02 900.102 401.922 900.812 401.922ZM900.473 403.562C899.582 403.562 898.863 403.734 898.316 404.078C897.777 404.422 897.383 404.938 897.133 405.625C896.883 406.305 896.75 407.16 896.734 408.191V408.566C896.734 409.652 896.852 410.57 897.086 411.32C897.328 412.07 897.723 412.641 898.27 413.031C898.824 413.422 899.566 413.617 900.496 413.617C901.293 413.617 901.957 413.402 902.488 412.973C903.02 412.543 903.414 411.945 903.672 411.18C903.938 410.406 904.07 409.52 904.07 408.52C904.07 407.004 903.773 405.801 903.18 404.91C902.594 404.012 901.691 403.562 900.473 403.562ZM913.621 413.641C913.941 413.641 914.27 413.613 914.605 413.559C914.941 413.504 915.215 413.438 915.426 413.359V414.871C915.199 414.973 914.883 415.059 914.477 415.129C914.078 415.199 913.688 415.234 913.305 415.234C912.625 415.234 912.008 415.117 911.453 414.883C910.898 414.641 910.453 414.234 910.117 413.664C909.789 413.094 909.625 412.305 909.625 411.297V403.68H907.797V402.73L909.637 401.969L910.41 399.18H911.582V402.156H915.344V403.68H911.582V411.238C911.582 412.043 911.766 412.645 912.133 413.043C912.508 413.441 913.004 413.641 913.621 413.641ZM919.973 402.156V415H918.027V402.156H919.973ZM919.023 397.352C919.344 397.352 919.617 397.457 919.844 397.668C920.078 397.871 920.195 398.191 920.195 398.629C920.195 399.059 920.078 399.379 919.844 399.59C919.617 399.801 919.344 399.906 919.023 399.906C918.688 399.906 918.406 399.801 918.18 399.59C917.961 399.379 917.852 399.059 917.852 398.629C917.852 398.191 917.961 397.871 918.18 397.668C918.406 397.457 918.688 397.352 919.023 397.352ZM935.172 408.555C935.172 409.609 935.035 410.551 934.762 411.379C934.488 412.207 934.094 412.906 933.578 413.477C933.062 414.047 932.438 414.484 931.703 414.789C930.977 415.086 930.152 415.234 929.23 415.234C928.371 415.234 927.582 415.086 926.863 414.789C926.152 414.484 925.535 414.047 925.012 413.477C924.496 412.906 924.094 412.207 923.805 411.379C923.523 410.551 923.383 409.609 923.383 408.555C923.383 407.148 923.621 405.953 924.098 404.969C924.574 403.977 925.254 403.223 926.137 402.707C927.027 402.184 928.086 401.922 929.312 401.922C930.484 401.922 931.508 402.184 932.383 402.707C933.266 403.23 933.949 403.988 934.434 404.98C934.926 405.965 935.172 407.156 935.172 408.555ZM925.398 408.555C925.398 409.586 925.535 410.48 925.809 411.238C926.082 411.996 926.504 412.582 927.074 412.996C927.645 413.41 928.379 413.617 929.277 413.617C930.168 413.617 930.898 413.41 931.469 412.996C932.047 412.582 932.473 411.996 932.746 411.238C933.02 410.48 933.156 409.586 933.156 408.555C933.156 407.531 933.02 406.648 932.746 405.906C932.473 405.156 932.051 404.578 931.48 404.172C930.91 403.766 930.172 403.562 929.266 403.562C927.93 403.562 926.949 404.004 926.324 404.887C925.707 405.77 925.398 406.992 925.398 408.555ZM944.617 401.922C946.141 401.922 947.293 402.297 948.074 403.047C948.855 403.789 949.246 404.984 949.246 406.633V415H947.324V406.762C947.324 405.691 947.078 404.891 946.586 404.359C946.102 403.828 945.355 403.562 944.348 403.562C942.926 403.562 941.926 403.965 941.348 404.77C940.77 405.574 940.48 406.742 940.48 408.273V415H938.535V402.156H940.105L940.398 404.008H940.504C940.777 403.555 941.125 403.176 941.547 402.871C941.969 402.559 942.441 402.324 942.965 402.168C943.488 402.004 944.039 401.922 944.617 401.922Z" fill="#A2E8DD"/>
<rect x="824" y="462" width="458" height="61" rx="18" stroke="#F4FFF9" stroke-width="2"/>
<path d="M832.668 573.379C831.723 573.379 830.871 573.543 830.113 573.871C829.363 574.191 828.723 574.66 828.191 575.277C827.668 575.887 827.266 576.625 826.984 577.492C826.703 578.359 826.562 579.336 826.562 580.422C826.562 581.859 826.785 583.109 827.23 584.172C827.684 585.227 828.355 586.043 829.246 586.621C830.145 587.199 831.266 587.488 832.609 587.488C833.375 587.488 834.094 587.426 834.766 587.301C835.445 587.168 836.105 587.004 836.746 586.809V588.543C836.121 588.777 835.465 588.949 834.777 589.059C834.09 589.176 833.273 589.234 832.328 589.234C830.586 589.234 829.129 588.875 827.957 588.156C826.793 587.43 825.918 586.406 825.332 585.086C824.754 583.766 824.465 582.207 824.465 580.41C824.465 579.113 824.645 577.93 825.004 576.859C825.371 575.781 825.902 574.852 826.598 574.07C827.301 573.289 828.16 572.688 829.176 572.266C830.199 571.836 831.371 571.621 832.691 571.621C833.559 571.621 834.395 571.707 835.199 571.879C836.004 572.051 836.73 572.297 837.379 572.617L836.582 574.305C836.035 574.055 835.434 573.84 834.777 573.66C834.129 573.473 833.426 573.379 832.668 573.379ZM851.242 582.555C851.242 583.609 851.105 584.551 850.832 585.379C850.559 586.207 850.164 586.906 849.648 587.477C849.133 588.047 848.508 588.484 847.773 588.789C847.047 589.086 846.223 589.234 845.301 589.234C844.441 589.234 843.652 589.086 842.934 588.789C842.223 588.484 841.605 588.047 841.082 587.477C840.566 586.906 840.164 586.207 839.875 585.379C839.594 584.551 839.453 583.609 839.453 582.555C839.453 581.148 839.691 579.953 840.168 578.969C840.645 577.977 841.324 577.223 842.207 576.707C843.098 576.184 844.156 575.922 845.383 575.922C846.555 575.922 847.578 576.184 848.453 576.707C849.336 577.23 850.02 577.988 850.504 578.98C850.996 579.965 851.242 581.156 851.242 582.555ZM841.469 582.555C841.469 583.586 841.605 584.48 841.879 585.238C842.152 585.996 842.574 586.582 843.145 586.996C843.715 587.41 844.449 587.617 845.348 587.617C846.238 587.617 846.969 587.41 847.539 586.996C848.117 586.582 848.543 585.996 848.816 585.238C849.09 584.48 849.227 583.586 849.227 582.555C849.227 581.531 849.09 580.648 848.816 579.906C848.543 579.156 848.121 578.578 847.551 578.172C846.98 577.766 846.242 577.562 845.336 577.562C844 577.562 843.02 578.004 842.395 578.887C841.777 579.77 841.469 580.992 841.469 582.555ZM868.551 575.922C869.965 575.922 871.031 576.293 871.75 577.035C872.469 577.77 872.828 578.953 872.828 580.586V589H870.906V580.68C870.906 579.641 870.68 578.863 870.227 578.348C869.781 577.824 869.117 577.562 868.234 577.562C866.992 577.562 866.09 577.922 865.527 578.641C864.965 579.359 864.684 580.418 864.684 581.816V589H862.75V580.68C862.75 579.984 862.648 579.406 862.445 578.945C862.25 578.484 861.953 578.141 861.555 577.914C861.164 577.68 860.668 577.562 860.066 577.562C859.215 577.562 858.531 577.738 858.016 578.09C857.5 578.441 857.125 578.965 856.891 579.66C856.664 580.348 856.551 581.195 856.551 582.203V589H854.605V576.156H856.176L856.469 577.973H856.574C856.832 577.527 857.156 577.152 857.547 576.848C857.938 576.543 858.375 576.312 858.859 576.156C859.344 576 859.859 575.922 860.406 575.922C861.383 575.922 862.199 576.105 862.855 576.473C863.52 576.832 864 577.383 864.297 578.125H864.402C864.824 577.383 865.402 576.832 866.137 576.473C866.871 576.105 867.676 575.922 868.551 575.922ZM882.859 575.922C884.461 575.922 885.738 576.473 886.691 577.574C887.645 578.676 888.121 580.332 888.121 582.543C888.121 584.004 887.902 585.23 887.465 586.223C887.027 587.215 886.41 587.965 885.613 588.473C884.824 588.98 883.891 589.234 882.812 589.234C882.133 589.234 881.535 589.145 881.02 588.965C880.504 588.785 880.062 588.543 879.695 588.238C879.328 587.934 879.023 587.602 878.781 587.242H878.641C878.664 587.547 878.691 587.914 878.723 588.344C878.762 588.773 878.781 589.148 878.781 589.469V594.742H876.824V576.156H878.43L878.688 578.055H878.781C879.031 577.664 879.336 577.309 879.695 576.988C880.055 576.66 880.492 576.402 881.008 576.215C881.531 576.02 882.148 575.922 882.859 575.922ZM882.52 577.562C881.629 577.562 880.91 577.734 880.363 578.078C879.824 578.422 879.43 578.938 879.18 579.625C878.93 580.305 878.797 581.16 878.781 582.191V582.566C878.781 583.652 878.898 584.57 879.133 585.32C879.375 586.07 879.77 586.641 880.316 587.031C880.871 587.422 881.613 587.617 882.543 587.617C883.34 587.617 884.004 587.402 884.535 586.973C885.066 586.543 885.461 585.945 885.719 585.18C885.984 584.406 886.117 583.52 886.117 582.52C886.117 581.004 885.82 579.801 885.227 578.91C884.641 578.012 883.738 577.562 882.52 577.562ZM896.324 575.945C897.855 575.945 898.992 576.289 899.734 576.977C900.477 577.664 900.848 578.762 900.848 580.27V589H899.43L899.055 587.102H898.961C898.602 587.57 898.227 587.965 897.836 588.285C897.445 588.598 896.992 588.836 896.477 589C895.969 589.156 895.344 589.234 894.602 589.234C893.82 589.234 893.125 589.098 892.516 588.824C891.914 588.551 891.438 588.137 891.086 587.582C890.742 587.027 890.57 586.324 890.57 585.473C890.57 584.191 891.078 583.207 892.094 582.52C893.109 581.832 894.656 581.457 896.734 581.395L898.949 581.301V580.516C898.949 579.406 898.711 578.629 898.234 578.184C897.758 577.738 897.086 577.516 896.219 577.516C895.547 577.516 894.906 577.613 894.297 577.809C893.688 578.004 893.109 578.234 892.562 578.5L891.965 577.023C892.543 576.727 893.207 576.473 893.957 576.262C894.707 576.051 895.496 575.945 896.324 575.945ZM898.926 582.672L896.969 582.754C895.367 582.816 894.238 583.078 893.582 583.539C892.926 584 892.598 584.652 892.598 585.496C892.598 586.23 892.82 586.773 893.266 587.125C893.711 587.477 894.301 587.652 895.035 587.652C896.176 587.652 897.109 587.336 897.836 586.703C898.562 586.07 898.926 585.121 898.926 583.855V582.672ZM910.938 575.922C912.461 575.922 913.613 576.297 914.395 577.047C915.176 577.789 915.566 578.984 915.566 580.633V589H913.645V580.762C913.645 579.691 913.398 578.891 912.906 578.359C912.422 577.828 911.676 577.562 910.668 577.562C909.246 577.562 908.246 577.965 907.668 578.77C907.09 579.574 906.801 580.742 906.801 582.273V589H904.855V576.156H906.426L906.719 578.008H906.824C907.098 577.555 907.445 577.176 907.867 576.871C908.289 576.559 908.762 576.324 909.285 576.168C909.809 576.004 910.359 575.922 910.938 575.922ZM917.547 576.156H919.633L922.469 583.609C922.633 584.047 922.785 584.469 922.926 584.875C923.066 585.273 923.191 585.656 923.301 586.023C923.41 586.391 923.496 586.746 923.559 587.09H923.641C923.75 586.699 923.906 586.188 924.109 585.555C924.312 584.914 924.531 584.262 924.766 583.598L927.449 576.156H929.547L923.957 590.887C923.66 591.676 923.312 592.363 922.914 592.949C922.523 593.535 922.047 593.984 921.484 594.297C920.922 594.617 920.242 594.777 919.445 594.777C919.078 594.777 918.754 594.754 918.473 594.707C918.191 594.668 917.949 594.621 917.746 594.566V593.008C917.918 593.047 918.125 593.082 918.367 593.113C918.617 593.145 918.875 593.16 919.141 593.16C919.625 593.16 920.043 593.066 920.395 592.879C920.754 592.699 921.062 592.434 921.32 592.082C921.578 591.73 921.801 591.312 921.988 590.828L922.691 589.023L917.547 576.156ZM948.285 588.977L946 581.5C945.898 581.18 945.801 580.867 945.707 580.562C945.621 580.25 945.539 579.953 945.461 579.672C945.391 579.383 945.324 579.117 945.262 578.875C945.207 578.625 945.16 578.41 945.121 578.23H945.039C945.008 578.41 944.965 578.625 944.91 578.875C944.855 579.117 944.789 579.383 944.711 579.672C944.641 579.961 944.562 580.266 944.477 580.586C944.391 580.898 944.293 581.215 944.184 581.535L941.793 588.977H939.602L936.062 576.133H938.078L939.93 583.223C940.055 583.691 940.172 584.156 940.281 584.617C940.398 585.07 940.496 585.5 940.574 585.906C940.66 586.305 940.723 586.652 940.762 586.949H940.855C940.902 586.754 940.953 586.52 941.008 586.246C941.07 585.973 941.137 585.684 941.207 585.379C941.285 585.066 941.367 584.758 941.453 584.453C941.539 584.141 941.625 583.848 941.711 583.574L944.078 576.133H946.176L948.461 583.562C948.578 583.938 948.691 584.328 948.801 584.734C948.918 585.141 949.023 585.535 949.117 585.918C949.211 586.293 949.277 586.629 949.316 586.926H949.41C949.441 586.66 949.5 586.332 949.586 585.941C949.672 585.551 949.77 585.121 949.879 584.652C949.996 584.184 950.117 583.707 950.242 583.223L952.117 576.133H954.098L950.547 588.977H948.285ZM961.387 575.922C962.48 575.922 963.418 576.164 964.199 576.648C964.98 577.133 965.578 577.812 965.992 578.688C966.406 579.555 966.613 580.57 966.613 581.734V582.941H957.742C957.766 584.449 958.141 585.598 958.867 586.387C959.594 587.176 960.617 587.57 961.938 587.57C962.75 587.57 963.469 587.496 964.094 587.348C964.719 587.199 965.367 586.98 966.039 586.691V588.402C965.391 588.691 964.746 588.902 964.105 589.035C963.473 589.168 962.723 589.234 961.855 589.234C960.621 589.234 959.543 588.984 958.621 588.484C957.707 587.977 956.996 587.234 956.488 586.258C955.98 585.281 955.727 584.086 955.727 582.672C955.727 581.289 955.957 580.094 956.418 579.086C956.887 578.07 957.543 577.289 958.387 576.742C959.238 576.195 960.238 575.922 961.387 575.922ZM961.363 577.516C960.324 577.516 959.496 577.855 958.879 578.535C958.262 579.215 957.895 580.164 957.777 581.383H964.574C964.566 580.617 964.445 579.945 964.211 579.367C963.984 578.781 963.637 578.328 963.168 578.008C962.699 577.68 962.098 577.516 961.363 577.516ZM971.863 570.766V575.324C971.863 575.848 971.848 576.355 971.816 576.848C971.793 577.34 971.773 577.723 971.758 577.996H971.863C972.215 577.418 972.723 576.93 973.387 576.531C974.051 576.133 974.898 575.934 975.93 575.934C977.539 575.934 978.82 576.492 979.773 577.609C980.734 578.719 981.215 580.371 981.215 582.566C981.215 584.012 980.996 585.23 980.559 586.223C980.121 587.215 979.504 587.965 978.707 588.473C977.91 588.98 976.969 589.234 975.883 589.234C974.867 589.234 974.031 589.047 973.375 588.672C972.727 588.289 972.227 587.824 971.875 587.277H971.723L971.324 589H969.918V570.766H971.863ZM975.613 577.562C974.684 577.562 973.945 577.746 973.398 578.113C972.852 578.473 972.457 579.02 972.215 579.754C971.98 580.48 971.863 581.402 971.863 582.52V582.625C971.863 584.242 972.133 585.48 972.672 586.34C973.211 587.191 974.191 587.617 975.613 587.617C976.809 587.617 977.703 587.18 978.297 586.305C978.898 585.43 979.199 584.18 979.199 582.555C979.199 580.898 978.902 579.652 978.309 578.816C977.723 577.98 976.824 577.562 975.613 577.562ZM992.922 585.484C992.922 586.305 992.715 586.996 992.301 587.559C991.895 588.113 991.309 588.531 990.543 588.812C989.785 589.094 988.879 589.234 987.824 589.234C986.926 589.234 986.148 589.164 985.492 589.023C984.836 588.883 984.262 588.684 983.77 588.426V586.633C984.293 586.891 984.918 587.125 985.645 587.336C986.371 587.547 987.113 587.652 987.871 587.652C988.98 587.652 989.785 587.473 990.285 587.113C990.785 586.754 991.035 586.266 991.035 585.648C991.035 585.297 990.934 584.988 990.73 584.723C990.535 584.449 990.203 584.188 989.734 583.938C989.266 583.68 988.617 583.398 987.789 583.094C986.969 582.781 986.258 582.473 985.656 582.168C985.062 581.855 984.602 581.477 984.273 581.031C983.953 580.586 983.793 580.008 983.793 579.297C983.793 578.211 984.23 577.379 985.105 576.801C985.988 576.215 987.145 575.922 988.574 575.922C989.348 575.922 990.07 576 990.742 576.156C991.422 576.305 992.055 576.508 992.641 576.766L991.984 578.324C991.453 578.098 990.887 577.906 990.285 577.75C989.684 577.594 989.07 577.516 988.445 577.516C987.547 577.516 986.855 577.664 986.371 577.961C985.895 578.258 985.656 578.664 985.656 579.18C985.656 579.578 985.766 579.906 985.984 580.164C986.211 580.422 986.57 580.664 987.062 580.891C987.555 581.117 988.203 581.383 989.008 581.688C989.812 581.984 990.508 582.293 991.094 582.613C991.68 582.926 992.129 583.309 992.441 583.762C992.762 584.207 992.922 584.781 992.922 585.484ZM997.996 576.156V589H996.051V576.156H997.996ZM997.047 571.352C997.367 571.352 997.641 571.457 997.867 571.668C998.102 571.871 998.219 572.191 998.219 572.629C998.219 573.059 998.102 573.379 997.867 573.59C997.641 573.801 997.367 573.906 997.047 573.906C996.711 573.906 996.43 573.801 996.203 573.59C995.984 573.379 995.875 573.059 995.875 572.629C995.875 572.191 995.984 571.871 996.203 571.668C996.43 571.457 996.711 571.352 997.047 571.352ZM1006.27 587.641C1006.59 587.641 1006.92 587.613 1007.25 587.559C1007.59 587.504 1007.86 587.438 1008.07 587.359V588.871C1007.85 588.973 1007.53 589.059 1007.12 589.129C1006.73 589.199 1006.34 589.234 1005.95 589.234C1005.27 589.234 1004.66 589.117 1004.1 588.883C1003.55 588.641 1003.1 588.234 1002.77 587.664C1002.44 587.094 1002.27 586.305 1002.27 585.297V577.68H1000.45V576.73L1002.29 575.969L1003.06 573.18H1004.23V576.156H1007.99V577.68H1004.23V585.238C1004.23 586.043 1004.41 586.645 1004.78 587.043C1005.16 587.441 1005.65 587.641 1006.27 587.641ZM1015.62 575.922C1016.71 575.922 1017.65 576.164 1018.43 576.648C1019.21 577.133 1019.81 577.812 1020.23 578.688C1020.64 579.555 1020.85 580.57 1020.85 581.734V582.941H1011.98C1012 584.449 1012.38 585.598 1013.1 586.387C1013.83 587.176 1014.85 587.57 1016.17 587.57C1016.98 587.57 1017.7 587.496 1018.33 587.348C1018.95 587.199 1019.6 586.98 1020.27 586.691V588.402C1019.62 588.691 1018.98 588.902 1018.34 589.035C1017.71 589.168 1016.96 589.234 1016.09 589.234C1014.86 589.234 1013.78 588.984 1012.86 588.484C1011.94 587.977 1011.23 587.234 1010.72 586.258C1010.21 585.281 1009.96 584.086 1009.96 582.672C1009.96 581.289 1010.19 580.094 1010.65 579.086C1011.12 578.07 1011.78 577.289 1012.62 576.742C1013.47 576.195 1014.47 575.922 1015.62 575.922ZM1015.6 577.516C1014.56 577.516 1013.73 577.855 1013.11 578.535C1012.5 579.215 1012.13 580.164 1012.01 581.383H1018.81C1018.8 580.617 1018.68 579.945 1018.45 579.367C1018.22 578.781 1017.87 578.328 1017.4 578.008C1016.93 577.68 1016.33 577.516 1015.6 577.516Z" fill="#A2E8DD"/>
<rect x="824" y="636" width="458" height="61" rx="18" stroke="#F4FFF9" stroke-width="2"/>
<rect x="823" y="737" width="460" height="63" rx="19" fill="#A2E8DD"/>
<path d="M926.613 770.387H929.836C929.75 771.527 929.434 772.539 928.887 773.422C928.34 774.297 927.578 774.984 926.602 775.484C925.625 775.984 924.441 776.234 923.051 776.234C921.98 776.234 921.016 776.047 920.156 775.672C919.305 775.289 918.574 774.746 917.965 774.043C917.363 773.332 916.902 772.48 916.582 771.488C916.262 770.488 916.102 769.367 916.102 768.125V766.824C916.102 765.582 916.266 764.461 916.594 763.461C916.922 762.461 917.391 761.609 918 760.906C918.617 760.195 919.355 759.648 920.215 759.266C921.082 758.883 922.051 758.691 923.121 758.691C924.512 758.691 925.688 758.949 926.648 759.465C927.609 759.973 928.355 760.672 928.887 761.562C929.418 762.453 929.738 763.477 929.848 764.633H926.625C926.562 763.914 926.406 763.305 926.156 762.805C925.914 762.305 925.547 761.926 925.055 761.668C924.57 761.402 923.926 761.27 923.121 761.27C922.496 761.27 921.945 761.387 921.469 761.621C921 761.855 920.609 762.207 920.297 762.676C919.984 763.137 919.75 763.715 919.594 764.41C919.438 765.098 919.359 765.895 919.359 766.801V768.125C919.359 768.992 919.43 769.77 919.57 770.457C919.711 771.145 919.93 771.727 920.227 772.203C920.523 772.68 920.906 773.043 921.375 773.293C921.844 773.543 922.402 773.668 923.051 773.668C923.84 773.668 924.48 773.543 924.973 773.293C925.473 773.043 925.852 772.676 926.109 772.191C926.375 771.707 926.543 771.105 926.613 770.387ZM932.332 758.938H938.531C939.828 758.938 940.941 759.133 941.871 759.523C942.801 759.914 943.516 760.492 944.016 761.258C944.516 762.023 944.766 762.965 944.766 764.082C944.766 764.965 944.609 765.73 944.297 766.379C943.984 767.027 943.543 767.57 942.973 768.008C942.41 768.445 941.746 768.789 940.98 769.039L939.973 769.555H934.5L934.477 767.012H938.566C939.23 767.012 939.781 766.895 940.219 766.66C940.656 766.426 940.984 766.102 941.203 765.688C941.43 765.273 941.543 764.801 941.543 764.27C941.543 763.699 941.434 763.207 941.215 762.793C940.996 762.371 940.664 762.047 940.219 761.82C939.773 761.594 939.211 761.48 938.531 761.48H935.555V776H932.332V758.938ZM941.965 776L938.016 768.359L941.426 768.348L945.422 775.836V776H941.965ZM958.898 773.469V776H949.828V773.469H958.898ZM950.812 758.938V776H947.59V758.938H950.812ZM957.715 765.98V768.453H949.828V765.98H957.715ZM958.863 758.938V761.48H949.828V758.938H958.863ZM967.922 761.527L963.059 776H959.648L966.023 758.938H968.203L967.922 761.527ZM971.988 776L967.102 761.527L966.809 758.938H969L975.41 776H971.988ZM971.766 769.66V772.203H962.613V769.66H971.766ZM983.016 758.938V776H979.805V758.938H983.016ZM988.312 758.938V761.48H974.566V758.938H988.312ZM1001.77 773.469V776H992.695V773.469H1001.77ZM993.68 758.938V776H990.457V758.938H993.68ZM1000.58 765.98V768.453H992.695V765.98H1000.58ZM1001.73 758.938V761.48H992.695V758.938H1001.73ZM1019.96 770.387H1023.19C1023.1 771.527 1022.79 772.539 1022.24 773.422C1021.69 774.297 1020.93 774.984 1019.95 775.484C1018.98 775.984 1017.79 776.234 1016.4 776.234C1015.33 776.234 1014.37 776.047 1013.51 775.672C1012.66 775.289 1011.93 774.746 1011.32 774.043C1010.71 773.332 1010.25 772.48 1009.93 771.488C1009.61 770.488 1009.45 769.367 1009.45 768.125V766.824C1009.45 765.582 1009.62 764.461 1009.95 763.461C1010.27 762.461 1010.74 761.609 1011.35 760.906C1011.97 760.195 1012.71 759.648 1013.57 759.266C1014.43 758.883 1015.4 758.691 1016.47 758.691C1017.86 758.691 1019.04 758.949 1020 759.465C1020.96 759.973 1021.71 760.672 1022.24 761.562C1022.77 762.453 1023.09 763.477 1023.2 764.633H1019.98C1019.91 763.914 1019.76 763.305 1019.51 762.805C1019.27 762.305 1018.9 761.926 1018.41 761.668C1017.92 761.402 1017.28 761.27 1016.47 761.27C1015.85 761.27 1015.3 761.387 1014.82 761.621C1014.35 761.855 1013.96 762.207 1013.65 762.676C1013.34 763.137 1013.1 763.715 1012.95 764.41C1012.79 765.098 1012.71 765.895 1012.71 766.801V768.125C1012.71 768.992 1012.78 769.77 1012.92 770.457C1013.06 771.145 1013.28 771.727 1013.58 772.203C1013.88 772.68 1014.26 773.043 1014.73 773.293C1015.2 773.543 1015.75 773.668 1016.4 773.668C1017.19 773.668 1017.83 773.543 1018.32 773.293C1018.82 773.043 1019.2 772.676 1019.46 772.191C1019.73 771.707 1019.89 771.105 1019.96 770.387ZM1039.5 767.035V767.914C1039.5 769.203 1039.33 770.363 1038.98 771.395C1038.64 772.418 1038.15 773.289 1037.52 774.008C1036.89 774.727 1036.13 775.277 1035.26 775.66C1034.38 776.043 1033.41 776.234 1032.34 776.234C1031.29 776.234 1030.32 776.043 1029.43 775.66C1028.56 775.277 1027.8 774.727 1027.16 774.008C1026.52 773.289 1026.02 772.418 1025.67 771.395C1025.32 770.363 1025.14 769.203 1025.14 767.914V767.035C1025.14 765.738 1025.32 764.578 1025.67 763.555C1026.02 762.531 1026.52 761.66 1027.15 760.941C1027.78 760.215 1028.54 759.66 1029.41 759.277C1030.29 758.895 1031.26 758.703 1032.32 758.703C1033.39 758.703 1034.36 758.895 1035.23 759.277C1036.11 759.66 1036.86 760.215 1037.5 760.941C1038.14 761.66 1038.63 762.531 1038.97 763.555C1039.32 764.578 1039.5 765.738 1039.5 767.035ZM1036.24 767.914V767.012C1036.24 766.082 1036.16 765.266 1035.98 764.562C1035.81 763.852 1035.56 763.254 1035.22 762.77C1034.89 762.285 1034.47 761.922 1033.98 761.68C1033.49 761.43 1032.93 761.305 1032.32 761.305C1031.69 761.305 1031.14 761.43 1030.65 761.68C1030.18 761.922 1029.77 762.285 1029.43 762.77C1029.1 763.254 1028.84 763.852 1028.66 764.562C1028.49 765.266 1028.4 766.082 1028.4 767.012V767.914C1028.4 768.836 1028.49 769.652 1028.66 770.363C1028.84 771.074 1029.1 771.676 1029.43 772.168C1029.78 772.652 1030.19 773.02 1030.68 773.27C1031.16 773.52 1031.71 773.645 1032.34 773.645C1032.96 773.645 1033.52 773.52 1034 773.27C1034.49 773.02 1034.89 772.652 1035.22 772.168C1035.56 771.676 1035.81 771.074 1035.98 770.363C1036.16 769.652 1036.24 768.836 1036.24 767.914ZM1043.64 758.938H1046.43L1051.09 771.781L1055.74 758.938H1058.54L1052.2 776H1049.96L1043.64 758.938ZM1042.23 758.938H1044.96L1045.45 770.738V776H1042.23V758.938ZM1057.21 758.938H1059.95V776H1056.73V770.738L1057.21 758.938ZM1069.79 769.777H1065.4V767.246H1069.79C1070.51 767.246 1071.09 767.129 1071.54 766.895C1071.99 766.652 1072.32 766.324 1072.54 765.91C1072.75 765.488 1072.85 765.008 1072.85 764.469C1072.85 763.945 1072.75 763.457 1072.54 763.004C1072.32 762.551 1071.99 762.184 1071.54 761.902C1071.09 761.621 1070.51 761.48 1069.79 761.48H1066.45V776H1063.23V758.938H1069.79C1071.12 758.938 1072.25 759.176 1073.19 759.652C1074.14 760.121 1074.86 760.773 1075.35 761.609C1075.85 762.438 1076.1 763.383 1076.1 764.445C1076.1 765.547 1075.85 766.496 1075.35 767.293C1074.86 768.09 1074.14 768.703 1073.19 769.133C1072.25 769.562 1071.12 769.777 1069.79 769.777ZM1083.56 761.527L1078.7 776H1075.29L1081.66 758.938H1083.84L1083.56 761.527ZM1087.63 776L1082.74 761.527L1082.45 758.938H1084.64L1091.05 776H1087.63ZM1087.41 769.66V772.203H1078.25V769.66H1087.41ZM1106.52 758.938V776H1103.29L1096.03 764.164V776H1092.81V758.938H1096.03L1103.31 770.785V758.938H1106.52ZM1111.46 758.938L1115.21 766.895L1118.99 758.938H1122.53L1116.86 769.754V776H1113.59V769.754L1107.9 758.938H1111.46ZM1140.2 770.387H1143.42C1143.34 771.527 1143.02 772.539 1142.47 773.422C1141.93 774.297 1141.16 774.984 1140.19 775.484C1139.21 775.984 1138.03 776.234 1136.64 776.234C1135.57 776.234 1134.6 776.047 1133.74 775.672C1132.89 775.289 1132.16 774.746 1131.55 774.043C1130.95 773.332 1130.49 772.48 1130.17 771.488C1129.85 770.488 1129.69 769.367 1129.69 768.125V766.824C1129.69 765.582 1129.85 764.461 1130.18 763.461C1130.51 762.461 1130.98 761.609 1131.59 760.906C1132.2 760.195 1132.94 759.648 1133.8 759.266C1134.67 758.883 1135.64 758.691 1136.71 758.691C1138.1 758.691 1139.27 758.949 1140.23 759.465C1141.2 759.973 1141.94 760.672 1142.47 761.562C1143 762.453 1143.32 763.477 1143.43 764.633H1140.21C1140.15 763.914 1139.99 763.305 1139.74 762.805C1139.5 762.305 1139.13 761.926 1138.64 761.668C1138.16 761.402 1137.51 761.27 1136.71 761.27C1136.08 761.27 1135.53 761.387 1135.05 761.621C1134.59 761.855 1134.2 762.207 1133.88 762.676C1133.57 763.137 1133.34 763.715 1133.18 764.41C1133.02 765.098 1132.95 765.895 1132.95 766.801V768.125C1132.95 768.992 1133.02 769.77 1133.16 770.457C1133.3 771.145 1133.52 771.727 1133.81 772.203C1134.11 772.68 1134.49 773.043 1134.96 773.293C1135.43 773.543 1135.99 773.668 1136.64 773.668C1137.43 773.668 1138.07 773.543 1138.56 773.293C1139.06 773.043 1139.44 772.676 1139.7 772.191C1139.96 771.707 1140.13 771.105 1140.2 770.387ZM1159.73 767.035V767.914C1159.73 769.203 1159.56 770.363 1159.22 771.395C1158.88 772.418 1158.39 773.289 1157.75 774.008C1157.12 774.727 1156.37 775.277 1155.49 775.66C1154.62 776.043 1153.64 776.234 1152.57 776.234C1151.52 776.234 1150.55 776.043 1149.67 775.66C1148.79 775.277 1148.04 774.727 1147.39 774.008C1146.75 773.289 1146.26 772.418 1145.91 771.395C1145.55 770.363 1145.38 769.203 1145.38 767.914V767.035C1145.38 765.738 1145.55 764.578 1145.91 763.555C1146.26 762.531 1146.75 761.66 1147.38 760.941C1148.02 760.215 1148.77 759.66 1149.64 759.277C1150.53 758.895 1151.5 758.703 1152.55 758.703C1153.62 758.703 1154.59 758.895 1155.47 759.277C1156.34 759.66 1157.1 760.215 1157.73 760.941C1158.37 761.66 1158.86 762.531 1159.21 763.555C1159.56 764.578 1159.73 765.738 1159.73 767.035ZM1156.48 767.914V767.012C1156.48 766.082 1156.39 765.266 1156.22 764.562C1156.05 763.852 1155.79 763.254 1155.46 762.77C1155.12 762.285 1154.71 761.922 1154.21 761.68C1153.72 761.43 1153.17 761.305 1152.55 761.305C1151.93 761.305 1151.37 761.43 1150.89 761.68C1150.41 761.922 1150 762.285 1149.67 762.77C1149.33 763.254 1149.07 763.852 1148.89 764.562C1148.72 765.266 1148.64 766.082 1148.64 767.012V767.914C1148.64 768.836 1148.72 769.652 1148.89 770.363C1149.07 771.074 1149.33 771.676 1149.67 772.168C1150.01 772.652 1150.43 773.02 1150.91 773.27C1151.39 773.52 1151.95 773.645 1152.57 773.645C1153.2 773.645 1153.75 773.52 1154.24 773.27C1154.72 773.02 1155.13 772.652 1155.46 772.168C1155.79 771.676 1156.05 771.074 1156.22 770.363C1156.39 769.652 1156.48 768.836 1156.48 767.914ZM1167.56 776H1163.88L1163.91 773.469H1167.56C1168.55 773.469 1169.39 773.25 1170.06 772.812C1170.73 772.367 1171.24 771.73 1171.58 770.902C1171.93 770.066 1172.1 769.066 1172.1 767.902V767.023C1172.1 766.125 1172 765.332 1171.8 764.645C1171.61 763.957 1171.32 763.379 1170.94 762.91C1170.56 762.441 1170.1 762.086 1169.54 761.844C1168.99 761.602 1168.35 761.48 1167.63 761.48H1163.81V758.938H1167.63C1168.77 758.938 1169.81 759.129 1170.75 759.512C1171.7 759.895 1172.51 760.445 1173.2 761.164C1173.89 761.875 1174.43 762.727 1174.79 763.719C1175.17 764.711 1175.36 765.82 1175.36 767.047V767.902C1175.36 769.121 1175.17 770.23 1174.79 771.23C1174.43 772.223 1173.89 773.074 1173.2 773.785C1172.51 774.496 1171.69 775.043 1170.74 775.426C1169.79 775.809 1168.73 776 1167.56 776ZM1165.69 758.938V776H1162.46V758.938H1165.69ZM1189.41 773.469V776H1180.34V773.469H1189.41ZM1181.32 758.938V776H1178.1V758.938H1181.32ZM1188.22 765.98V768.453H1180.34V765.98H1188.22ZM1189.37 758.938V761.48H1180.34V758.938H1189.37Z" fill="#01295B"/>
</g>
<defs>
<filter id="filter0_f_4_189" x="375" y="-654" width="2086" height="2039" filterUnits="userSpaceOnUse" color-interpolation-filters="sRGB">
<feFlood flood-opacity="0" result="BackgroundImageFix"/>
<feBlend mode="normal" in="SourceGraphic" in2="BackgroundImageFix" result="shape"/>
<feGaussianBlur stdDeviation="300" result="effect1_foregroundBlur_4_189"/>
</filter>
<filter id="filter1_f_4_189" x="-730" y="-241" width="2033" height="1977" filterUnits="userSpaceOnUse" color-interpolation-filters="sRGB">
<feFlood flood-opacity="0" result="BackgroundImageFix"/>
<feBlend mode="normal" in="SourceGraphic" in2="BackgroundImageFix" result="shape"/>
<feGaussianBlur stdDeviation="300" result="effect1_foregroundBlur_4_189"/>
</filter>
<filter id="filter2_d_4_189" x="822.234" y="137.648" width="106.104" height="35.8262" filterUnits="userSpaceOnUse" color-interpolation-filters="sRGB">
<feFlood flood-opacity="0" result="BackgroundImageFix"/>
<feColorMatrix in="SourceAlpha" type="matrix" values="0 0 0 0 0 0 0 0 0 0 0 0 0 0 0 0 0 0 127 0" result="hardAlpha"/>
<feOffset dy="4"/>
<feGaussianBlur stdDeviation="2"/>
<feComposite in2="hardAlpha" operator="out"/>
<feColorMatrix type="matrix" values="0 0 0 0 0 0 0 0 0 0 0 0 0 0 0 0 0 0 0.25 0"/>
<feBlend mode="normal" in2="BackgroundImageFix" result="effect1_dropShadow_4_189"/>
<feBlend mode="normal" in="SourceGraphic" in2="effect1_dropShadow_4_189" result="shape"/>
</filter>
<clipPath id="clip0_4_189">
<rect width="1440" height="1024" fill="white"/>
</clipPath>
</defs>
</svg>
